Release Information:

Source.Code.2011.PROPER.720p.BRRip.XviD.AC3-PsychoLogic

Source                           : Source.Code.PROPER.1080p.BluRay.x264-TWiZTED
Subtitles                        : Arabic, English, Farsi, Greek, Indonesian, Polish, Portuguese-BR, Serbian, Slovenian, Spanish, Swedish, Vietnamese
Language                         : English
Encoded By                       : PsychoLogic
Sample Included                  : Yes

Movie Information                : http://www.imdb.com/title/tt0945513/
Genre                            : Mystery | Sci-Fi | Thriller 
Director                         : Duncan Jones
Cast                             : Jake Gyllenhaal, Michelle Monaghan and Vera Farmiga
Plot                             : An action thriller centered on a soldier who wakes up in the body of an unknown man and discovers he's part of a mission to find the bomber of a Chicago commuter train. 

General
Format                           : AVI
Format/Info                      : Audio Video Interleave
Format profile                   : OpenDML
File size                        : 2.58 GiB
Duration                         : 1h 33mn
Overall bit rate                 : 3 959 Kbps
Writing application              : VirtualDubMod 1.5.10.2 (build 2542/release)
Writing library                  : VirtualDubMod build 2542/release

Video
ID                               : 0
Format                           : MPEG-4 Visual
Format profile                   : Advanced Simple@L5
Format settings, BVOP            : 2
Format settings, QPel            : No
Format settings, GMC             : No warppoints
Format settings, Matrix          : Default (H.263)
Codec ID                         : XVID
Codec ID/Hint                    : XviD
Duration                         : 1h 33mn
Bit rate                         : 3 499 Kbps
Width                            : 1 280 pixels
Height                           : 720 pixels
Display aspect ratio             : 16:9
Frame rate                       : 23.976 fps
Color space                      : YUV
Chroma subsampling               : 4:2:0
Bit depth                        : 8 bits
Scan type                        : Progressive
Compression mode                 : Lossy
Bits/(Pixel*Frame)               : 0.158
Stream size                      : 2.28 GiB (88%)
Writing library                  : XviD 1.2.1 (UTC 2008-12-04)

Audio
ID                               : 1
Format                           : AC-3
Format/Info                      : Audio Coding 3
Mode extension                   : CM (complete main)
Codec ID                         : 2000
Duration                         : 1h 33mn
Bit rate mode                    : Constant
Bit rate                         : 448 Kbps
Channel(s)                       : 6 channels
Channel positions                : Front: L C R, Side: L R, LFE
Sampling rate                    : 48.0 KHz
Bit depth                        : 16 bits
Compression mode                 : Lossy
Stream size                      : 299 MiB (11%)
Alignment                        : Split accross interleaves
Interleave, duration             : 42 ms (1.00 video frame)
Interleave, preload duration     : 500 ms
